<?xml version="1.0" encoding="utf-8"?><svg viewBox="0 0 82 77" xmlns="http://www.w3.org/2000/svg" xmlns:xlink="http://www.w3.org/1999/xlink"><style>:root>svg{display:none}:root>svg:target{display:block}</style><svg fill="none" viewBox="0 0 62 77" id="medal_icon" xmlns="http://www.w3.org/2000/svg"><path d="M11.672 46.616 1.154 65.717a1.232 1.232 0 0 0 .09 1.332c.142.191.336.339.56.426a1.3 1.3 0 0 0 .705.069l9.402-1.695a1.3 1.3 0 0 1 .837.13c.256.135.458.353.57.615l3.714 8.64c.094.218.248.405.446.54a1.294 1.294 0 0 0 1.855-.431L26.61 62.13m28.164-7.443 6.073 11.03a1.233 1.233 0 0 1-.09 1.332 1.275 1.275 0 0 1-.56.427 1.301 1.301 0 0 1-.705.068l-9.404-1.695a1.3 1.3 0 0 0-.838.13 1.262 1.262 0 0 0-.57.615l-3.714 8.64a1.258 1.258 0 0 1-.446.54 1.294 1.294 0 0 1-1.855-.431L32.384 56.67m25.719-33.514-1.442 4.353a4.526 4.526 0 0 0 0 2.855l1.442 4.351a4.534 4.534 0 0 1 0 2.854 4.625 4.625 0 0 1-1.711 2.31l-3.777 2.69a4.626 4.626 0 0 0-1.712 2.31l-1.442 4.351a4.623 4.623 0 0 1-1.711 2.31 4.774 4.774 0 0 1-2.77.882h-4.666c-.995 0-1.965.309-2.77.882l-3.777 2.69a4.774 4.774 0 0 1-2.769.882 4.775 4.775 0 0 1-2.77-.882l-3.776-2.69a4.773 4.773 0 0 0-2.769-.882h-4.667a4.775 4.775 0 0 1-2.77-.882 4.625 4.625 0 0 1-1.71-2.31l-1.443-4.351a4.63 4.63 0 0 0-1.711-2.31l-3.777-2.69a4.625 4.625 0 0 1-1.712-2.31 4.533 4.533 0 0 1 0-2.854l1.443-4.351a4.54 4.54 0 0 0 0-2.855l-1.443-4.352a4.532 4.532 0 0 1 0-2.855 4.624 4.624 0 0 1 1.712-2.31l3.777-2.69a4.628 4.628 0 0 0 1.711-2.308l1.442-4.353a4.626 4.626 0 0 1 1.714-2.307 4.776 4.776 0 0 1 2.77-.88h4.672a4.78 4.78 0 0 0 2.769-.882l3.777-2.69A4.774 4.774 0 0 1 31.006 1c.995 0 1.964.309 2.769.882l3.777 2.69a4.78 4.78 0 0 0 2.77.882h4.666c.995 0 1.964.309 2.77.882a4.625 4.625 0 0 1 1.71 2.31l1.443 4.351a4.625 4.625 0 0 0 1.712 2.31l3.777 2.69a4.625 4.625 0 0 1 1.705 2.308 4.534 4.534 0 0 1-.002 2.852ZM41.801 34.73c0 4.24-4.836 7.677-10.802 7.677-5.965 0-10.801-3.437-10.801-7.677S25.034 27.053 31 27.053c5.965 0 10.801 3.437 10.801 7.677Zm-18.38-13.29c.818 2.346-.113 4.782-2.08 5.441-1.966.66-4.224-.708-5.041-3.054-.818-2.346.113-4.782 2.08-5.441 1.966-.66 4.224.708 5.042 3.054Zm20.204-3.045c1.966.66 2.898 3.095 2.08 5.441-.818 2.346-3.075 3.714-5.042 3.055-1.966-.66-2.898-3.095-2.08-5.441.818-2.346 3.075-3.714 5.042-3.055Zm-8.862 1.559c0 2.48-1.685 4.489-3.763 4.489-2.079 0-3.764-2.01-3.764-4.489 0-2.48 1.685-4.489 3.764-4.489 2.078 0 3.763 2.01 3.763 4.489Z" stroke="#222220" stroke-width="2" stroke-linecap="round" stroke-linejoin="round"/></svg><svg fill="none" viewBox="0 0 72 67" id="paw_icon" xmlns="http://www.w3.org/2000/svg"><path d="M11.695 45.19c-.65-.47-1.276-.955-1.877-1.455m-2.681-2.55C3.265 37 1 31.928 1 26.47c.037-33.956 69.946-33.965 69.976 0 .435 7.806-5.143 13.532-10.302 19.209-1.752 5.5-11.326 21.336-14.913 20.27-2.505-.745-.065-14.108-3.456-13.656-3.466.464-2.554.194-6.32.194-7.724 0-14.863-1.861-20.651-5.016M49.72 34.339c0 5.456-6.143 9.88-13.72 9.88-7.578 0-13.72-4.424-13.72-9.88 0-5.457 6.142-9.88 13.72-9.88 7.577 0 13.72 4.423 13.72 9.88ZM26.373 17.235c1.039 3.02-.144 6.154-2.642 7.002-2.499.848-5.366-.911-6.405-3.93-1.039-3.02.144-6.155 2.642-7.003 2.499-.848 5.366.912 6.405 3.931Zm25.665-3.919c2.498.848 3.681 3.983 2.643 7.002-1.04 3.02-3.907 4.78-6.405 3.931-2.498-.848-3.68-3.983-2.642-7.002 1.039-3.02 3.906-4.78 6.404-3.93ZM40.78 15.323c0 3.19-2.14 5.777-4.78 5.777s-4.78-2.586-4.78-5.777c0-3.19 2.14-5.777 4.78-5.777s4.78 2.587 4.78 5.777Z" stroke="#000" stroke-width="2" stroke-linecap="round" stroke-linejoin="round"/></svg><svg fill="none" viewBox="0 0 82 69" id="pet-house_icon" xmlns="http://www.w3.org/2000/svg"><path d="m16.108 15.603-1.408.826m-4.26 2.499L1 24.465l6.79 10.352L41 15.808l33.21 19.008L81 24.464S41.07 1.047 40.999 1c-.037.024-10.39 6.098-20.816 12.212m48.95 37.964V31.911m-56.267 0v30.553a4.992 4.992 0 0 0 4.99 4.991h2.872a5.16 5.16 0 0 0 5.16-5.16V43.472a4.574 4.574 0 0 1 4.573-4.573H51.54a4.572 4.572 0 0 1 4.573 4.574v12.26m18.406 2.4a4.528 4.528 0 0 0 .92-3.909 4.512 4.512 0 0 0-8.901 1.034c0 .16.01.475.01.475H50.005s.015-.396.01-.598c-.063-2.33-1.966-4.275-4.294-4.382a4.506 4.506 0 0 0-4.69 5.03 4.51 4.51 0 0 0 1.015 2.363 1.952 1.952 0 0 1-.01 2.464 4.528 4.528 0 0 0-.921 3.908 4.511 4.511 0 0 0 8.901-1.033c0-.16-.01-.475-.01-.475h16.541s-.014.396-.008.598c.06 2.33 1.962 4.273 4.288 4.382a4.508 4.508 0 0 0 4.695-5.03 4.51 4.51 0 0 0-1.015-2.363 1.951 1.951 0 0 1 .011-2.464Z" stroke="#000" stroke-width="2" stroke-linecap="round" stroke-linejoin="round"/></svg><svg fill="none" viewBox="0 0 70 70" id="syringe_icon" xmlns="http://www.w3.org/2000/svg"><path d="M25.945 29.279 45.922 9.3a3.191 3.191 0 0 1 4.514 0l10.267 10.263a3.193 3.193 0 0 1 0 4.514L21.829 62.95a3.194 3.194 0 0 1-4.514 0L7.048 52.689a3.191 3.191 0 0 1 0-4.514l8.571-8.57m3.478-3.478 3.067-3.067m5.665 23.888-3.299-3.299m10.015-3.418-3.299-3.299M47.978 36.8l-3.299-3.3m10.015-3.417-3.299-3.299M41.262 43.515l-3.3-3.299M7.537 62.463 1 69m68-54.597L55.597 1M5.686 56.612l2.64-2.64 7.702 7.7-2.64 2.641a2.828 2.828 0 0 1-4 0l-3.703-3.702a2.829 2.829 0 0 1 0-4h.001ZM52.68 11.544l6.73-6.73 5.777 5.776-6.731 6.73-5.776-5.776Z" stroke="#000" stroke-width="2" stroke-linecap="round" stroke-linejoin="round"/></svg></svg>