<svg width="370" height="370" viewBox="0 0 370 370" fill="none" xmlns="http://www.w3.org/2000/svg">
<g clip-path="url(#clip0_1_92)">
<g style="mix-blend-mode:screen">
<g style="mix-blend-mode:screen">
<path d="M222.48 52.2522L221.96 52.4886H221.58C220.83 53.199 220.36 54.156 220.26 55.1845C220.21 56.0766 220.49 56.9551 221.05 57.6527C221.61 58.3504 222.4 58.8185 223.28 58.968H224.28H224.94H225.32H225.55C225.92 58.6461 226.22 58.2543 226.43 57.8157C226.64 57.377 226.76 56.9005 226.78 56.4142C226.82 55.7243 226.67 55.0373 226.36 54.4228C226.04 53.8083 225.57 53.2879 224.99 52.9143H224.61H224.04H223.62H222.67L222.48 52.2522Z" fill="#E7B851"/>
</g>
<g style="mix-blend-mode:screen">
<path d="M260.08 58.8263L260.32 59.2047L260.98 59.7722H261.26H261.64H261.92C262.56 59.8842 263.22 59.8099 263.81 59.5582C264.41 59.3065 264.92 58.888 265.28 58.3533C265.71 57.7161 265.93 56.9673 265.93 56.2014C265.93 55.4355 265.71 54.6867 265.28 54.0495L264.86 53.6238L264.1 53.1981H263.49H262.16H261.55L260.79 53.6238L260.36 54.0495C259.93 54.5828 259.64 55.2232 259.53 55.9049C259.42 56.5867 259.5 57.285 259.75 57.9276L260.08 58.8263Z" fill="#EADECF"/>
</g>
<g style="mix-blend-mode:screen">
<path d="M123.02 0.0856099V0.700326V1.22065C123.37 1.98749 124 2.59072 124.78 2.90718C125.57 3.22365 126.44 3.22938 127.23 2.9232L127.61 2.68679L128.08 2.30849L128.36 1.97739L128.69 1.64629L129.07 1.07877V0.653129V-0.24549V-0.623932V-1.19145V-1.56975C128.88 -2.03909 128.58 -2.46002 128.2 -2.80308C127.83 -3.14614 127.38 -3.40315 126.9 -3.55621C126.43 -3.71308 125.93 -3.7647 125.44 -3.70747C124.95 -3.65025 124.48 -3.48556 124.06 -3.22511L123.3 -2.75213L123.02 -2.37383L122.69 -1.80631V-1.33333V-0.292832L123.02 0.0856099Z" fill="#F9E59F"/>
</g>
<g style="mix-blend-mode:screen">
<path d="M263.63 6.70704L262.63 7.65286L262.3 8.12584L262.02 8.83524V9.35556C262.01 9.9233 262.13 10.4859 262.37 11.0017C262.6 11.5175 262.95 11.9733 263.39 12.3352C263.8 12.6386 264.27 12.8506 264.77 12.9567C265.26 13.0628 265.78 13.0605 266.28 12.95H266.65L267.17 12.6663L267.46 12.3824L268.07 11.673V11.2947V10.6798V10.2542C268.09 9.4309 267.84 8.62509 267.36 7.95336C266.88 7.28163 266.21 6.7788 265.42 6.51782H264.72H263.82L263.63 6.70704Z" fill="#F9F6D2"/>
</g>
<g style="mix-blend-mode:screen">
<path d="M188.85 12.2876H189.37H190.13H190.65H190.93C191.49 12.2671 192.03 12.1095 192.51 11.8289C192.99 11.5483 193.39 11.1534 193.68 10.6796V10.1593V9.44988V8.9297L193.2 7.60544V7.17981C192.74 6.53335 192.1 6.0391 191.36 5.76086H190.89H190.37H189.66H189.18L188.29 6.37572L187.95 6.65948L187.58 7.17981V7.69998C187.36 8.08475 187.22 8.50896 187.16 8.94818C187.11 9.3874 187.14 9.83297 187.26 10.2593C187.38 10.6856 187.58 11.0844 187.85 11.4324C188.13 11.7805 188.47 12.0711 188.85 12.2876Z" fill="#DFCBB3"/>
</g>
<g style="mix-blend-mode:screen">
<path d="M335.33 21.7467L335.04 22.0779V22.3142L334.62 23.0709V23.3547V23.7803V24.1115C334.6 24.7518 334.78 25.3819 335.12 25.9212C335.47 26.4605 335.97 26.8843 336.56 27.1384C337.25 27.4575 338.02 27.5605 338.77 27.434C339.52 27.3074 340.22 26.957 340.77 26.4289L341.1 25.9088L341.38 25.0574V24.4425V23.1656V22.598L340.81 21.8886L340.34 21.5103C339.74 21.1791 339.06 21.0052 338.38 21.0052C337.69 21.0052 337.02 21.1791 336.42 21.5103L335.33 21.7467Z" fill="#53240B"/>
</g>
<g style="mix-blend-mode:screen">
<path d="M201.24 207.522L200.49 208.752V209.414V210.407V211.069L200.77 211.637V212.015V212.535C201.14 213.632 201.79 214.612 202.66 215.373L203.37 215.657H204.46H205.26L206.54 214.9L207.01 214.285L207.44 213.245V212.488V211.779V211.542C207.36 211.012 207.23 210.49 207.06 209.981C206.81 209.115 206.32 208.338 205.64 207.743C204.96 207.148 204.12 206.759 203.23 206.624H202.52L201.62 207.049L201.24 207.522Z" fill="#F9D46B"/>
</g>
<g style="mix-blend-mode:screen">
<path d="M317.73 -5.35346C316.8 -5.96898 315.67 -6.20567 314.56 -6.01552H314.14L313.57 -5.63722L313.19 -5.25878L312.63 -4.36016V-3.93452V-3.27246V-2.84682C312.75 -2.19323 312.99 -1.56763 313.33 -1.00224L313.62 -0.245502L313.95 0.227479L314.9 1.07875L315.37 1.36251H316.17H316.74C317.72 1.19977 318.6 0.656765 319.18 -0.148798C319.77 -0.954361 320.01 -1.95764 319.86 -2.94136C319.68 -3.46451 319.41 -3.9472 319.04 -4.36131C318.67 -4.77543 318.23 -5.11273 317.73 -5.35346Z" fill="#F1E9E1"/>
</g>
<g style="mix-blend-mode:screen">
<path d="M327.19 63.4611V64.1705V64.4542V64.8799V65.1164L327.71 65.7312V65.9677L328.09 66.2515H328.37C328.98 66.4944 329.63 66.5699 330.27 66.47C330.91 66.3701 331.52 66.0985 332.02 65.684C332.49 65.2769 332.86 64.7605 333.08 64.1797C333.31 63.5989 333.39 62.9713 333.32 62.3513C333.25 61.7314 333.03 61.1379 332.68 60.6225C332.33 60.107 331.86 59.6851 331.31 59.3936C330.86 59.1833 330.38 59.0742 329.89 59.0742C329.4 59.0742 328.91 59.1833 328.47 59.3936C327.83 59.8308 327.36 60.4693 327.13 61.2067C326.9 61.9442 326.92 62.738 327.19 63.4611Z" fill="#4B2008"/>
</g>
<g style="mix-blend-mode:screen">
<path d="M284.44 51.4007V51.0224V50.3602L284.15 49.8874L283.82 49.509V48.9414L283.11 47.9009L282.69 47.5227L281.98 47.097H281.41C280.92 47.0702 280.42 47.1469 279.96 47.3222C279.5 47.4974 279.08 47.7673 278.73 48.1147C278.37 48.4621 278.1 48.8792 277.92 49.3392C277.74 49.7992 277.65 50.2921 277.67 50.786L278.29 51.4954V52.1575L279.23 53.3399V53.9074C279.66 54.3575 280.22 54.6733 280.82 54.8164C281.43 54.9595 282.06 54.9238 282.65 54.7135C283.23 54.5032 283.75 54.1274 284.12 53.6317C284.5 53.136 284.72 52.5418 284.77 51.9211L284.44 51.4007Z" fill="#EEE3D8"/>
</g>
<g style="mix-blend-mode:screen">
<path d="M220.4 81.1022L220.82 82.0482L221.11 82.4266L221.58 82.8995L221.96 83.136L222.95 83.5617H223.38H224.04H224.51C225.03 83.3984 225.51 83.1258 225.91 82.7624C226.31 82.3989 226.63 81.9532 226.85 81.4553C227.06 80.9574 227.17 80.4189 227.16 79.8765C227.15 79.3342 227.02 78.8006 226.78 78.3118V78.0281L226.45 77.6498L225.93 77.2241L225.51 76.9876L224.51 76.6566H223.43H222.95L222.01 77.0823L221.63 77.366L221.16 77.8862L220.87 78.2646L220.16 79.3997V79.8727V80.5821L220.4 81.1022Z" fill="#9F5504"/>
</g>
<g style="mix-blend-mode:screen">
<path d="M334.57 73.4403L334.14 73.6768L333.62 74.1498L333.34 74.5281L332.82 75.5213V75.9943V76.7037V77.224C332.98 77.7767 333.25 78.2882 333.63 78.7217C334 79.1552 334.47 79.4998 335 79.7306H335.37H336.7H337.08H337.36C338.1 79.3189 338.67 78.6472 338.95 77.8443C339.23 77.0415 339.2 76.1638 338.87 75.3794C338.53 74.5774 337.89 73.9339 337.1 73.5751C336.3 73.2163 335.4 73.1681 334.57 73.4403Z" fill="#F9DD85"/>
</g>
<g style="mix-blend-mode:screen">
<path d="M339.3 43.266L338.59 44.4957V45.0632V45.82V46.3403C338.74 46.8865 339.01 47.3903 339.39 47.8099C339.76 48.2294 340.24 48.5525 340.77 48.7522C341.24 48.9309 341.76 48.9983 342.27 48.9491C342.77 48.8999 343.26 48.7356 343.7 48.4685L344.03 48.1847L344.41 47.7591V47.428L344.74 46.5294V46.1037V45.4889V45.0632C344.5 44.2674 344.01 43.5684 343.35 43.0669C342.69 42.5655 341.88 42.2874 341.05 42.2728H340.39L339.58 42.6985L339.3 43.266Z" fill="#662B02"/>
</g>
<g style="mix-blend-mode:screen">
<path d="M298.96 110.047L298.67 110.614H298.39C298.11 111.256 297.99 111.951 298.01 112.648V113.452V113.83L298.34 114.351L298.63 114.635L299.38 115.202H301.13L302.27 113.783V112.601V112.364V110.614L301.09 109.243H299.29L298.53 109.905L298.96 110.047Z" fill="#F9E59F"/>
</g>
<g style="mix-blend-mode:screen">
<path d="M362.05 39.4349L361.62 38.9148L361.34 38.5837C360.8 38.1135 360.14 37.7853 359.44 37.6285C358.74 37.4717 358.01 37.4911 357.32 37.685C356.71 37.9031 356.15 38.26 355.7 38.7277C355.25 39.1954 354.91 39.7612 354.72 40.3809C354.48 41.1833 354.43 42.0323 354.59 42.8558C354.74 43.6793 355.1 44.4528 355.62 45.1104C356.16 45.6724 356.83 46.0917 357.57 46.331C358.32 46.5704 359.11 46.6223 359.87 46.482H360.3L360.87 46.1509L361.2 45.8198L361.86 44.9685V44.5429V43.8807V43.5497V42.9821C362.14 41.9604 362.14 40.8824 361.86 39.8607L362.05 39.4349Z" fill="#F9EEB8"/>
</g>
<g style="mix-blend-mode:screen">
<path d="M356.33 45.8199V46.151V46.624V47.9483V48.3266C356.38 48.9079 356.6 49.4633 356.94 49.9346L357.27 50.313L357.93 50.6913H358.41H359.68H360.02C360.64 50.6388 361.24 50.4271 361.77 50.0765L362.1 49.6982L362.47 49.0833V48.6103V47.3334V46.7659L362.81 46.4348L363.42 45.5362V45.0632V44.4011V43.9281C363.19 43.029 362.71 42.2109 362.05 41.5634L361.39 41.0432H361.01H360.44H359.07H358.64L358.08 41.2796L357.7 41.516C357.22 41.9047 356.83 42.3943 356.56 42.9501C356.29 43.506 356.15 44.1145 356.14 44.7322C356.15 45.1021 356.21 45.4685 356.33 45.8199Z" fill="#793903"/>
</g>
<g style="mix-blend-mode:screen">
<path d="M212.64 220.718V220.197V219.393C212.62 218.841 212.48 218.301 212.23 217.81C211.97 217.319 211.62 216.891 211.18 216.556C210.55 216.045 209.79 215.74 208.98 215.681C208.18 215.622 207.37 215.812 206.68 216.226C205.99 216.639 205.44 217.256 205.11 217.992C204.78 218.728 204.69 219.547 204.84 220.339V220.859L205.12 221.332V221.569L206.21 222.42L206.64 222.657H207.3H207.77H208.91H209.38L209.95 222.326L210.33 221.995L211.18 220.907L212.64 220.718Z" fill="#793903"/>
</g>
<g style="mix-blend-mode:screen">
<path d="M194.81 166.564L195.05 166.281V165.855V165.524V164.673V163.774V163.443C194.49 162.409 193.59 161.592 192.52 161.12C191.44 160.649 190.23 160.551 189.09 160.842L188.38 161.267L187.62 162.166L187.34 162.97V164.531L187.62 165.288L188.29 166.186L188.81 166.564L189.23 166.801C191.79 168.031 193.54 167.983 194.81 166.564Z" fill="#F9E59F"/>
</g>
<g style="mix-blend-mode:screen">
<path d="M352.83 75.6632L352.31 75.3794H351.74C351.26 75.1342 350.72 75.0066 350.18 75.0066C349.64 75.0066 349.1 75.1342 348.62 75.3794L347.81 75.9469V76.1835L347.58 76.5618V76.8455V77.5077V77.7915V78.5009C347.65 79.058 347.85 79.5895 348.18 80.0505C348.5 80.5115 348.92 80.8884 349.42 81.1494C350.02 81.4566 350.69 81.6168 351.36 81.6168C352.03 81.6168 352.7 81.4566 353.3 81.1494C353.78 80.9019 354.19 80.539 354.5 80.0932C354.8 79.6474 354.99 79.1327 355.05 78.5954V77.6023L354.72 76.8455L354.34 76.3254L352.83 75.6632Z" fill="#EADECF"/>
</g>
<g style="mix-blend-mode:screen">
<path d="M242.68 84.129L243.05 83.7034V83.325L243.43 82.4265V82.048V81.0075V80.3455V79.967L243.05 79.4469L242.72 79.1158L241.68 78.5009H241.45C240.97 78.2852 240.45 78.1878 239.93 78.2171H239.32L238.56 78.6901L238.14 79.1631L237.47 80.3927V80.8657V82.048C237.6 82.6121 237.86 83.1379 238.23 83.582C238.6 84.0261 239.07 84.3758 239.6 84.602C240.1 84.7666 240.62 84.8264 241.14 84.7775C241.67 84.7287 242.17 84.5723 242.63 84.3183L242.68 84.129Z" fill="#E7D8C6"/>
</g>
<g style="mix-blend-mode:screen">
<path d="M357.32 26.0032V25.5302L356.99 24.8682L356.7 24.4899L355.85 23.7803L355.43 23.5439L354.77 23.3075H354.25C353.67 23.3314 353.11 23.4741 352.6 23.7265C352.09 23.9789 351.63 24.3356 351.27 24.7736V25.0101V25.3412V25.5776V26.3817V27.3275C351.45 28.1574 351.94 28.8854 352.65 29.3608C353.35 29.8362 354.21 30.0226 355.05 29.8814C355.83 29.6124 356.49 29.0735 356.9 28.3622C357.32 27.6509 357.47 26.8142 357.32 26.0032Z" fill="#F9F6D2"/>
</g>
<g style="mix-blend-mode:screen">
<path d="M293.47 213.954V212.961L293.19 211.637V211.211C292.83 210.091 292.05 209.155 291.01 208.61H290.4H289.26H287.98L287.13 209.083C286.48 209.932 286.2 211.002 286.33 212.062C286.4 212.585 286.57 213.089 286.84 213.544C287.11 213.999 287.47 214.395 287.89 214.711C288.3 215.048 288.77 215.297 289.28 215.442C289.79 215.588 290.32 215.626 290.85 215.555C291.37 215.484 291.87 215.305 292.33 215.029C292.78 214.754 293.17 214.388 293.47 213.954Z" fill="#F9DD85"/>
</g>
<g style="mix-blend-mode:screen">
<path d="M332.68 156.065C332.67 156.554 332.77 157.039 332.97 157.488C333.16 157.936 333.45 158.338 333.81 158.666C334.42 159.289 335.22 159.682 336.08 159.777C336.95 159.871 337.82 159.663 338.54 159.186H338.87L339.25 158.903L339.68 158.383V157.957V157.626C340 157.245 340.24 156.797 340.37 156.315C340.5 155.833 340.52 155.328 340.44 154.835C340.28 153.995 339.81 153.248 339.11 152.754C338.39 152.141 337.48 151.805 336.53 151.805C335.59 151.805 334.67 152.141 333.96 152.754C333.51 153.174 333.16 153.69 332.94 154.263C332.72 154.837 332.63 155.453 332.68 156.065Z" fill="#C47F1E"/>
</g>
<g style="mix-blend-mode:screen">
<path d="M288.74 79.0211L289.17 79.494L289.55 79.7777C290.11 80.1997 290.78 80.4726 291.48 80.5717C292.19 80.6708 292.9 80.5931 293.57 80.3454C294.18 80.0979 294.71 79.6986 295.13 79.1855C295.54 78.6725 295.82 78.0624 295.93 77.413C296.14 76.581 296.13 75.7108 295.9 74.8835C295.68 74.0563 295.25 73.2992 294.65 72.6835C294.06 72.1648 293.35 71.8024 292.58 71.629C291.81 71.4555 291.01 71.4766 290.25 71.6903H289.88L289.31 72.1159L289.02 72.447L288.46 73.3457V73.7713V74.4335V75.3793C288.3 76.435 288.43 77.5124 288.84 78.5008L288.74 79.0211Z" fill="#D6BDA1"/>
</g>
<g style="mix-blend-mode:screen">
<path d="M221.96 158.855L220.73 159.612L220.26 160.132L219.83 160.984V161.693V162.308V162.686V163.254C219.65 164.387 219.78 165.547 220.21 166.612L220.73 167.227L221.63 167.794H222.43H223.9L224.66 167.51L225.46 166.801L225.84 166.091V165.429V165.193C225.99 164.683 226.1 164.161 226.17 163.632C226.34 162.745 226.25 161.829 225.91 160.991C225.58 160.153 225.01 159.428 224.28 158.903H223.62H222.62L221.96 158.855Z" fill="#3B1703"/>
</g>
<g style="mix-blend-mode:screen">
<path d="M362.05 60.9547C362.54 60.6933 362.97 60.337 363.32 59.9065C363.67 59.4761 363.93 58.9802 364.08 58.448V57.975V57.2656V56.84L363.56 55.8467L363.28 55.5157L362.76 55.09L362.33 54.8535C361.7 54.7026 361.03 54.7026 360.39 54.8535H359.59H359.02L357.84 55.2792L357.37 55.6103L356.85 56.2251L356.56 56.6981C356.41 57.1639 356.34 57.6557 356.38 58.1456C356.41 58.6355 356.55 59.1138 356.76 59.553C356.98 59.9923 357.29 60.384 357.66 60.7057C358.03 61.0273 358.46 61.2727 358.93 61.4276C359.45 61.5608 360 61.5875 360.54 61.5063C361.07 61.4251 361.59 61.2376 362.05 60.9547Z" fill="#DFCBB3"/>
</g>
<g style="mix-blend-mode:screen">
<path d="M313.71 52.6778L314 52.0156V51.7318V51.0224V50.2657V49.9346V49.509V49.2252C313.64 48.6887 313.14 48.2598 312.56 47.9848C311.97 47.7098 311.33 47.5991 310.69 47.6645C310.01 47.7303 309.37 47.9815 308.82 48.3904C308.28 48.7993 307.86 49.3501 307.61 49.9819C307.35 50.4873 307.22 51.0465 307.22 51.6136C307.22 52.1808 307.35 52.7399 307.61 53.2453C307.85 53.6807 308.18 54.0565 308.58 54.3436C308.98 54.6306 309.44 54.8212 309.93 54.9007C310.72 55.0357 311.53 54.8867 312.23 54.48C312.92 54.0732 313.45 53.4349 313.71 52.6778Z" fill="#F9DD85"/>
</g>
<g style="mix-blend-mode:screen">
<path d="M277.63 101.865L277.25 102.243L276.92 103.047V103.52V104.04L276.59 104.561L276.16 105.743V106.311V107.162L276.4 107.682C276.66 108.102 277.01 108.46 277.42 108.732C277.84 109.004 278.3 109.185 278.79 109.261C279.28 109.337 279.78 109.307 280.26 109.174C280.73 109.04 281.17 108.806 281.55 108.486V107.588L282.12 107.304L282.5 105.838L282.88 105.412C282.98 104.77 282.9 104.112 282.64 103.515C282.38 102.919 281.95 102.412 281.41 102.054C280.88 101.619 280.23 101.366 279.55 101.332C278.87 101.298 278.19 101.485 277.63 101.865Z" fill="#C47F1E"/>
</g>
<g style="mix-blend-mode:screen">
<path d="M364.74 115.77V115.344V114.635V114.114V113.026V112.601L364.32 112.033L363.94 111.702C363.48 111.363 362.94 111.136 362.38 111.037C361.81 110.939 361.23 110.972 360.68 111.135H360.44H360.11L359.5 111.655L359.26 111.939V112.175C358.92 112.964 358.9 113.85 359.19 114.656C359.48 115.463 360.06 116.13 360.82 116.526C361.47 116.816 362.2 116.899 362.9 116.764C363.6 116.628 364.25 116.281 364.74 115.77Z" fill="#6D341B"/>
</g>
<g style="mix-blend-mode:screen">
<path d="M331.69 157.295L331.12 156.68H330.79L330.22 156.443H329.79H328.8H328.33H327.76H327.33L326.81 156.822L326.48 157.2L326.1 157.815V158.241V159.376V159.849V160.511V160.936L326.72 161.788L327.05 162.119L327.62 162.45H328.04H329.08H329.56H330.22H330.64C331.08 162.196 331.45 161.855 331.75 161.448C332.04 161.04 332.24 160.576 332.35 160.085C332.5 159.104 332.26 158.102 331.69 157.295Z" fill="#D59C38"/>
</g>
<g style="mix-blend-mode:screen">
<path d="M366.4 178.72V179.334L366.68 179.713C367.1 180.288 367.66 180.747 368.31 181.045C368.95 181.343 369.66 181.47 370.37 181.415C371.02 181.352 371.65 181.13 372.19 180.766C372.74 180.403 373.19 179.912 373.49 179.334C373.91 178.574 374.13 177.72 374.13 176.851C374.13 175.983 373.91 175.129 373.49 174.368C373.11 173.682 372.55 173.112 371.86 172.721C371.18 172.329 370.4 172.13 369.62 172.145H369.14L368.53 172.382L368.1 172.618L367.35 173.328L367.06 173.706L366.73 174.274V174.652V175.172C366.25 176.122 366.06 177.189 366.16 178.247L366.4 178.72Z" fill="#F9E59F"/>
</g>
<g style="mix-blend-mode:screen">
<path d="M304.11 314.693L302.93 315.45L302.46 316.017L302.08 316.916V317.578V318.24V318.618V319.139C301.95 320.285 302.13 321.445 302.6 322.497L303.12 323.112L304.06 323.632H304.82H306.34L307.04 323.301L307.85 322.544L308.23 321.835V321.125V320.889C308.38 320.38 308.47 319.857 308.51 319.328C308.66 318.427 308.55 317.501 308.19 316.662C307.83 315.823 307.24 315.106 306.48 314.599H305.77H304.77L304.11 314.693Z" fill="#E7B851"/>
</g>
<g style="mix-blend-mode:screen">
<path d="M284.82 34.9422V34.3746V33.949C284.34 33.0435 283.52 32.3634 282.55 32.0571C281.7 31.7834 280.78 31.8353 279.96 32.2024C279.15 32.5695 278.5 33.2257 278.15 34.0435V34.3273V34.7056V35.9827V36.361V36.5975C278.36 37.034 278.65 37.4228 279.02 37.7401C279.39 38.0573 279.81 38.2961 280.28 38.442C280.94 38.6466 281.65 38.6713 282.34 38.5136C283.02 38.3558 283.64 38.0211 284.15 37.5433V37.2122L284.44 36.6921V36.3138V35.3678L284.82 34.9422Z" fill="#3B1703"/>
</g>
<g style="mix-blend-mode:screen">
<path d="M363.61 173.422L364.32 174.179L364.7 174.463L365.27 174.747H365.74H366.78H367.25H367.87H368.29C368.74 174.414 369.11 173.988 369.38 173.498C369.65 173.009 369.81 172.466 369.85 171.909C369.9 171.389 369.83 170.865 369.65 170.375C369.47 169.885 369.18 169.44 368.81 169.071V168.835L368.39 168.551L367.77 168.314H367.3H366.26H365.79L365.17 168.551L364.79 168.787L364.04 169.497L363.75 169.875L363.42 170.537V171.01V172.098V172.571L363.66 173.233L363.61 173.422Z" fill="#F9F6D2"/>
</g>
<g style="mix-blend-mode:screen">
<path d="M368.48 226.771V226.015L368.2 225.163V224.88V224.501V224.265C367.71 223.84 367.12 223.561 366.48 223.46C365.85 223.36 365.19 223.442 364.6 223.697C363.9 224.008 363.31 224.521 362.91 225.17C362.51 225.819 362.3 226.575 362.33 227.339V227.954L362.76 228.71L363.18 229.136L364.32 229.846H364.89H365.79H366.4C367.05 229.612 367.62 229.215 368.07 228.693C368.52 228.171 368.82 227.541 368.95 226.866L368.48 226.771Z" fill="#F9E59F"/>
</g>
<path d="M-277.364 -1340.04L-360.971 -1256.44L1354.65 459.176L1438.26 375.569L-277.364 -1340.04Z" fill="url(#paint0_linear_1_92)"/>
<path d="M-345.932 -1271.46L-360.981 -1256.41L1354.64 459.201L1369.69 444.152L-345.932 -1271.46Z" fill="url(#paint1_linear_1_92)"/>
<path d="M-745.078 -1044.81L-750.296 -1039.59L1073.22 783.909L1078.43 778.692L-745.078 -1044.81Z" fill="url(#paint2_linear_1_92)"/>
<path d="M-499.115 -1300.17L-504.332 -1294.95L1319.18 528.546L1324.4 523.329L-499.115 -1300.17Z" fill="url(#paint3_linear_1_92)"/>
<path d="M-203.506 -1461L-208.723 -1455.78L1614.79 367.716L1620.01 362.499L-203.506 -1461Z" fill="url(#paint4_linear_1_92)"/>
<path d="M-837.268 -1048L-842.486 -1042.78L981.03 780.716L986.24 775.498L-837.268 -1048Z" fill="url(#paint5_linear_1_92)"/>
<path d="M-1026.78 -1043.73L-1032 -1038.51L791.51 784.987L796.73 779.77L-1026.78 -1043.73Z" fill="url(#paint6_linear_1_92)"/>
<path d="M-391.618 -1421.94L-396.835 -1416.72L1426.68 406.779L1431.89 401.561L-391.618 -1421.94Z" fill="url(#paint7_linear_1_92)"/>
<g style="mix-blend-mode:screen">
<path d="M698.18 -291.063C919.8 -69.4384 1084.49 125.134 1066.04 143.674C1047.6 162.213 852.93 -2.51561 631.3 -224.141C409.68 -445.766 244.95 -640.338 263.44 -658.878C281.93 -677.418 476.55 -512.689 698.18 -291.063Z" fill="url(#paint8_radial_1_92)"/>
</g>
<g style="mix-blend-mode:screen">
<path d="M430.96 -255.592C652.59 -33.9668 817.27 160.605 798.82 179.145C780.38 197.685 585.71 32.9559 364.08 -188.669C142.46 -410.294 -22.27 -604.867 -3.78003 -623.406C14.71 -641.946 209.33 -477.217 430.96 -255.592Z" fill="url(#paint9_radial_1_92)"/>
</g>
<g style="mix-blend-mode:screen">
<path d="M416.3 -240.93C540.92 -116.355 633.53 -6.91394 623.12 3.72748C612.72 14.3689 503.32 -78.4715 378.7 -203.094C254.07 -327.717 161.52 -437.347 171.92 -447.752C182.33 -458.157 291.72 -365.553 416.3 -240.93Z" fill="url(#paint10_radial_1_92)"/>
</g>
<g style="mix-blend-mode:screen">
<path d="M386.03 32.9086C607.65 254.534 772.34 449.106 753.89 467.646C735.45 486.185 540.78 321.456 319.15 99.8313C97.5301 -121.794 -67.2049 -316.366 -48.7119 -334.906C-30.2199 -353.446 164.4 -188.716 386.03 32.9086Z" fill="url(#paint11_radial_1_92)"/>
</g>
<g style="mix-blend-mode:screen">
<path d="M371.51 47.5698C495.99 172.145 588.59 281.586 578.19 292.228C567.78 302.869 458.39 209.792 333.67 85.1695C208.95 -39.4532 116.59 -148.847 126.99 -159.252C137.4 -169.657 246.79 -77.053 371.51 47.5698Z" fill="url(#paint12_radial_1_92)"/>
</g>
</g>
</g>
<defs>
<linearGradient id="paint0_linear_1_92" x1="-475.948" y1="-1448.33" x2="1584.12" y2="598.379" gradientUnits="userSpaceOnUse">
<stop stop-color="#F4EFEA"/>
<stop offset="0.06" stop-color="#F3EDE8"/>
<stop offset="0.53" stop-color="#EEE3D8"/>
<stop offset="0.99" stop-color="#E3D1BD"/>
</linearGradient>
<linearGradient id="paint1_linear_1_92" x1="1158.2" y1="247.709" x2="119" y2="-791.498" gradientUnits="userSpaceOnUse">
<stop stop-color="#F4E0AE"/>
<stop offset="0.2" stop-color="#EACD8C"/>
<stop offset="0.32" stop-color="#E5C47C"/>
<stop offset="0.36" stop-color="#E0BE77"/>
<stop offset="0.42" stop-color="#D2AD69"/>
<stop offset="0.5" stop-color="#BC9152"/>
<stop offset="0.54" stop-color="#AA7A40"/>
<stop offset="0.62" stop-color="#C09657"/>
<stop offset="0.72" stop-color="#D4AF6B"/>
<stop offset="0.8" stop-color="#E1BF78"/>
<stop offset="0.87" stop-color="#E5C47C"/>
</linearGradient>
<linearGradient id="paint2_linear_1_92" x1="859.31" y1="564.391" x2="-245.232" y2="-540.163" gradientUnits="userSpaceOnUse">
<stop stop-color="#F4E0AE"/>
<stop offset="0.2" stop-color="#EACD8C"/>
<stop offset="0.32" stop-color="#E5C47C"/>
<stop offset="0.36" stop-color="#E0BE77"/>
<stop offset="0.42" stop-color="#D2AD69"/>
<stop offset="0.5" stop-color="#BC9152"/>
<stop offset="0.54" stop-color="#AA7A40"/>
<stop offset="0.62" stop-color="#C09657"/>
<stop offset="0.72" stop-color="#D4AF6B"/>
<stop offset="0.8" stop-color="#E1BF78"/>
<stop offset="0.87" stop-color="#E5C47C"/>
</linearGradient>
<linearGradient id="paint3_linear_1_92" x1="1105.28" y1="309.028" x2="0.729976" y2="-795.526" gradientUnits="userSpaceOnUse">
<stop stop-color="#F4E0AE"/>
<stop offset="0.2" stop-color="#EACD8C"/>
<stop offset="0.32" stop-color="#E5C47C"/>
<stop offset="0.36" stop-color="#E0BE77"/>
<stop offset="0.42" stop-color="#D2AD69"/>
<stop offset="0.5" stop-color="#BC9152"/>
<stop offset="0.54" stop-color="#AA7A40"/>
<stop offset="0.62" stop-color="#C09657"/>
<stop offset="0.72" stop-color="#D4AF6B"/>
<stop offset="0.8" stop-color="#E1BF78"/>
<stop offset="0.87" stop-color="#E5C47C"/>
</linearGradient>
<linearGradient id="paint4_linear_1_92" x1="1400.85" y1="148.164" x2="296.31" y2="-956.39" gradientUnits="userSpaceOnUse">
<stop stop-color="#F4E0AE"/>
<stop offset="0.2" stop-color="#EACD8C"/>
<stop offset="0.32" stop-color="#E5C47C"/>
<stop offset="0.36" stop-color="#E0BE77"/>
<stop offset="0.42" stop-color="#D2AD69"/>
<stop offset="0.5" stop-color="#BC9152"/>
<stop offset="0.54" stop-color="#AA7A40"/>
<stop offset="0.62" stop-color="#C09657"/>
<stop offset="0.72" stop-color="#D4AF6B"/>
<stop offset="0.8" stop-color="#E1BF78"/>
<stop offset="0.87" stop-color="#E5C47C"/>
</linearGradient>
<linearGradient id="paint5_linear_1_92" x1="766.86" y1="561.331" x2="-337.69" y2="-543.223" gradientUnits="userSpaceOnUse">
<stop stop-color="#F4E0AE"/>
<stop offset="0.2" stop-color="#EACD8C"/>
<stop offset="0.32" stop-color="#E5C47C"/>
<stop offset="0.36" stop-color="#E0BE77"/>
<stop offset="0.42" stop-color="#D2AD69"/>
<stop offset="0.5" stop-color="#BC9152"/>
<stop offset="0.54" stop-color="#AA7A40"/>
<stop offset="0.62" stop-color="#C09657"/>
<stop offset="0.72" stop-color="#D4AF6B"/>
<stop offset="0.8" stop-color="#E1BF78"/>
<stop offset="0.87" stop-color="#E5C47C"/>
</linearGradient>
<linearGradient id="paint6_linear_1_92" x1="577.58" y1="565.502" x2="-526.97" y2="-539.052" gradientUnits="userSpaceOnUse">
<stop stop-color="#F4E0AE"/>
<stop offset="0.2" stop-color="#EACD8C"/>
<stop offset="0.32" stop-color="#E5C47C"/>
<stop offset="0.36" stop-color="#E0BE77"/>
<stop offset="0.42" stop-color="#D2AD69"/>
<stop offset="0.5" stop-color="#BC9152"/>
<stop offset="0.54" stop-color="#AA7A40"/>
<stop offset="0.62" stop-color="#C09657"/>
<stop offset="0.72" stop-color="#D4AF6B"/>
<stop offset="0.8" stop-color="#E1BF78"/>
<stop offset="0.87" stop-color="#E5C47C"/>
</linearGradient>
<linearGradient id="paint7_linear_1_92" x1="1212.47" y1="187.428" x2="107.93" y2="-917.126" gradientUnits="userSpaceOnUse">
<stop stop-color="#F4E0AE"/>
<stop offset="0.2" stop-color="#EACD8C"/>
<stop offset="0.32" stop-color="#E5C47C"/>
<stop offset="0.36" stop-color="#E0BE77"/>
<stop offset="0.42" stop-color="#D2AD69"/>
<stop offset="0.5" stop-color="#BC9152"/>
<stop offset="0.54" stop-color="#AA7A40"/>
<stop offset="0.62" stop-color="#C09657"/>
<stop offset="0.72" stop-color="#D4AF6B"/>
<stop offset="0.8" stop-color="#E1BF78"/>
<stop offset="0.87" stop-color="#E5C47C"/>
</linearGradient>
<radialGradient id="paint8_radial_1_92" cx="0" cy="0" r="1" gradientUnits="userSpaceOnUse" gradientTransform="translate(512.74 -105.523) rotate(-44.9998) scale(45.4149 567.686)">
<stop stop-color="#8C4703"/>
<stop offset="0.09" stop-color="#7B3F03"/>
<stop offset="0.49" stop-color="#391D01"/>
<stop offset="0.78" stop-color="#100800"/>
<stop offset="0.93"/>
</radialGradient>
<radialGradient id="paint9_radial_1_92" cx="0" cy="0" r="1" gradientUnits="userSpaceOnUse" gradientTransform="translate(251.51 -76.0469) rotate(-44.9998) scale(45.4149 567.686)">
<stop stop-color="#8C4703"/>
<stop offset="0.09" stop-color="#7B3F03"/>
<stop offset="0.49" stop-color="#391D01"/>
<stop offset="0.78" stop-color="#100800"/>
<stop offset="0.93"/>
</radialGradient>
<radialGradient id="paint10_radial_1_92" cx="0" cy="0" r="1" gradientUnits="userSpaceOnUse" gradientTransform="translate(642.41 -500.782) rotate(-44.9998) scale(28.3914 317.984)">
<stop stop-color="#F9EEB8"/>
<stop offset="0.04" stop-color="#EBE1AE"/>
<stop offset="0.23" stop-color="#A59D7A"/>
<stop offset="0.41" stop-color="#6A654E"/>
<stop offset="0.58" stop-color="#3C3A2D"/>
<stop offset="0.72" stop-color="#1B1A14"/>
<stop offset="0.85" stop-color="#070705"/>
<stop offset="0.93"/>
</radialGradient>
<radialGradient id="paint11_radial_1_92" cx="0" cy="0" r="1" gradientUnits="userSpaceOnUse" gradientTransform="translate(213.19 205.867) rotate(-44.9998) scale(45.4149 567.686)">
<stop stop-color="#8C4703"/>
<stop offset="0.09" stop-color="#7B3F03"/>
<stop offset="0.49" stop-color="#391D01"/>
<stop offset="0.78" stop-color="#100800"/>
<stop offset="0.93"/>
</radialGradient>
<radialGradient id="paint12_radial_1_92" cx="0" cy="0" r="1" gradientUnits="userSpaceOnUse" gradientTransform="translate(585.66 -201.387) rotate(-44.9998) scale(28.3914 317.984)">
<stop stop-color="#F9EEB8"/>
<stop offset="0.04" stop-color="#EBE1AE"/>
<stop offset="0.23" stop-color="#A59D7A"/>
<stop offset="0.41" stop-color="#6A654E"/>
<stop offset="0.58" stop-color="#3C3A2D"/>
<stop offset="0.72" stop-color="#1B1A14"/>
<stop offset="0.85" stop-color="#070705"/>
<stop offset="0.93"/>
</radialGradient>
<clipPath id="clip0_1_92">
<rect width="370" height="370" fill="white"/>
</clipPath>
</defs>
</svg>
